<?xml version="1.0" encoding="UTF-8"?><svg id="Layer_1" xmlns="http://www.w3.org/2000/svg" viewBox="0 0 494.09 486.59"><defs><style>.cls-1{stroke-width:0px;}</style></defs><path id="Path_62474" class="cls-1" d="M494.08,238.67c-.1-1.68-1.11-3.23-1.05-4.94,0-1.61.81-3.15.77-4.76-.21-1.16-.49-2.32-.83-3.45-.27-1.7.53-4.12-.19-6.03-.64-1.68-1.42-3.31-2.34-4.87-.97-2.62-1.31-5.44-.99-8.22.3-3.15-2.07-5.73-1.88-8.73,1.41-2.58,1.99-5.53,1.67-8.45-.49-2.09-2.76-3.19-3.93-5.02-1.33-2.56-2.11-5.37-2.31-8.25-.58-2.91-1.38-5.77-2.38-8.57-1.77-5.03-1.49-10.24-2.86-15.29-4.94-10.06-11.7-19.34-15.16-30.13-.71-2.46-1.55-4.88-2.53-7.25-3.22-4.26-7.84-7.39-10.9-11.83-2.14-2.49-2.86-5.9-4.75-8.52-1.49-1.47-4.79-1.04-6.31-3.01-2.86-3.44-3.32-8.27-6.36-11.68-5.21-7.93-12.81-13.88-19.05-20.97-2.84-3.04-6.16-5.6-9.83-7.58-5.13-6.08-11.52-10.98-18.73-14.37-2.86-1.65-5.43-3.69-8.16-5.51-6.02-3.6-12.28-6.76-18.74-9.47-5.74-3.25-12.77-4.28-18.37-7.6-1.78-.53-4.03,1.17-5.99.14-2.64-1.05-4.13-3.91-6.64-5.2-1.74-.95-3.99-.08-5.8-.84s-3.27-2.56-5.33-2.57c-2.13.06-4.01,2.53-6.37,1.75-3-.58-5.43-2.72-8.41-3.41-3.67-.82-7.35.05-10.83-1.58-1.74-.37-3.53-.39-5.27-.05-2.76-.04-5.51.22-8.21.76-4.55,2.31-4.61-2.07-8.19-2.09-2.58.42-5.31,2.55-8.17,1.59-1.51-.31-2.85-1.29-4.05-1.43-1.01-.07-2.03-.07-3.04,0-1.2-.27-2.44-.34-3.67-.2-1.03.28-1.93,1.18-3.05,1.03-1.21-.07-2.55-1.55-3.9-1.91-.33-.1-.67-.15-1.02-.14-1.54.03-2.85,1.68-4.5,2.14-3.75.92-7.68-.48-11.49.1-6.16.53-12.21,1.92-17.99,4.12-1.94.42-3.83-1.15-5.56-1.09-1.89.09-3.91,1.88-5.97,2.25-5.85.43-11.63,1.59-17.2,3.45-6.19,2.11-11.37,6.1-17.64,7.91-4.39,1.49-9.17,1.77-13.67,3.39-4.04,1.51-7.84,3.58-11.31,6.13-6.96,4.55-14.68,8.03-20.64,13.97-1.75,1.98-4.74,4.13-4.37,7.05,0,.29.14.59,0,.81-.33.26-3.15-1.09-4.11-.89h-.16c-6.06.22-10.35,5.37-15.04,8.66-2.49,2.2-4.83,4.57-7,7.09-1.19,1.06-2.44,2.04-3.75,2.94-3.92,2.45-5.98,6.53-9.06,9.75-1.86,1.6-4.43,2.34-6.39,3.89-1.61,1.23-2.18,3.26-3.36,4.82-5.79,5.87-9.47,13.48-14.4,20.1-2.51,3.13-5.25,6.07-8.2,8.79-1.49,1.98-1.43,4.76-2.62,6.82-2.52,3.49-6.31,6.13-7.87,10.35-4.64,10.11-5.45,22.4-12.47,31.34-2.74,2.33-.71,3.88-.33,6.34.15,2.24-1.63,4.09-2.08,6.26-1.54,7.49-6.05,14.19-7.51,21.75-.24,3.55-.71,7.08-1.41,10.57-.61,4.78-4.38,8.85-3.99,13.72.54,1.47.95,2.99,1.24,4.53.16,1.93.15,3.86-.04,5.79-.94,2.59-1.61,5.27-2.01,8-.18,2.78.13,5.56.9,8.24.45,7.47-.48,15.09.43,22.5.46,2.36,1.91,4.44,2.18,6.87.38,2.88-.16,5.9.44,8.73.57,1.45,1.05,2.92,1.46,4.42.09,1.75-1.32,3.48-.97,5.31,1.18,6.05,0,9.75,5.23,14.11.66,1.14-.56,2.64.25,4.03,1.38,1.62,2.38,3.54,2.92,5.6,1.46,5.12,3.21,10.15,5.24,15.07.17,1.69-.99,3.39-.63,5.13.33,1.73,1.18,3.31,2.43,4.54,5.31,3.01,3.32,2.92,4.86,8.13.71,1.13,1.62,2.12,2.68,2.94,2.27,2.74,3.35,6.67,5.51,9.55,1.65,2.18,4.34,3.39,5.68,5.9,6.74,11.38,12.42,23.71,21.81,33.23,2.01,2.03,3.95,4.09,6.18,5.93,3.93,3.29,8.88,5.52,12.26,9.51,3.02,3.92,6.43,7.52,10.16,10.76,2.76,2.17,5.72,4.06,8.86,5.64,1.83.43,3.57,1.17,5.14,2.19,2.31,1.72,3.06,4.76,4.91,6.86,2.13,2.01,4.99,3.43,7.25,5.32,1.62.79,2.97-1.09,4.84-1.34,5.74-.64,8.5,6.7,13.16,8.83,3.22,2.18,7.21,1.48,10.76,2.81,2.77,1.15,5.24,2.99,7.81,4.35,8.84,3.75,17.35,8.55,26.44,11.76,4.39.78,8.85.33,13.31,1.01,5.71.43,11.13,2.4,16.71,3.25,2.24.2,4.35-1.32,6.51-1.08,1.83.13,3.52,1.77,5.31,2.12,1.47.31,2.76-.6,4.05-.58,2.47.54,4.98.88,7.5,1.01,2.75-.05,5.46.64,7.84,2,4.11,2.25,8.47.4,12.55-.91,3.78-.91,7.67-1.27,11.55-1.07,6.64.35,13.3-.14,19.82-1.45,8.21-2.07,14.5-5.37,23.31-3.16,5.27,1.86,3.85-2.45,7.72-3.78,3.06-.26,6.06-.99,8.9-2.16,4.46-2.97,9.29-5.34,14.37-7.06,2.05-.26,4.07-.74,6.02-1.42,2.82-2.61,5.93-4.88,9.27-6.78,2.97-1.78,6.53-2.05,9.55-3.54,7.52-4,14.53-8.89,20.88-14.57,2.85-2.12,6.59-2.27,9.51-4.06,2.63-1.95,5.06-4.15,7.25-6.59,5.21-5.08,12.19-8.18,16.8-13.89,1.85-2.19,3.52-4.55,5.5-6.63,1.38-1.39,2.86-2.67,4.42-3.84,5.13-4.05,6.38-11.2,10.8-15.84,2.61-2.82,5.58-5.33,7.97-8.32,1.31-2.34,2.78-4.58,4.41-6.71,1.23-1.32,2.94-2.29,3.75-3.95.79-1.6.13-3.67.97-5.23,2.2-2.75,3.95-5.75,6.37-8.3,3.29-3.47,4.15-8.37,7.03-12.17,1.39-1.66,2.36-3.63,2.81-5.74.33-3.73-.23-7.71,2.82-10.4,1.34-1.34,3.66-2.12,4.46-3.61.41-1.14.59-2.36.52-3.57.32-1.97.91-3.89,1.76-5.7.63-2.78,1.44-5.52,2.41-8.2-.02-2.07-1.12-3.95.52-5.71,1.73-3.84,3.18-7.79,4.34-11.84,1.83-3.27-1.57-6.39.43-9.54.83-1.65,2.45-3.04,2.57-4.61.22-1.53-1.27-3.08-1.69-4.67-1.05-4.12,2.75-7.61,2.64-11.71-.32-4.64.05-9.3,1.09-13.84.81-1.99,1.23-4.11,1.25-6.26M16.44,180.06c-.33.15-.85.62-1.24.49-.25-.13-.42-.47-.61-.72-.2-.33-.48-.66-.37-1.01.24-.52.86-.15,1.2.11.4.29.93.52,1.03,1.05l-.02.08ZM51.4,289.18c-.09,0-.19-.24-.29-.36-.2-.35-.61-.79-.36-1.19.13-.16.36-.5.51-.54.32.27.61.58.87.92v.1c-.14.16-.58,1.04-.73,1.08M85.94,240.44c-1.09.26-1.92-1.04-1.98-1.98v-.15c.05-.73-.17-1.42.24-2.04.24-.26.53-.64.81-.66.51.1.91.66,1.3,1,.61.54,1.14,1.16,1.59,1.83.52.99-1.11,1.79-1.95,1.98M90.62,296.62c-.57.03-1.11-.19-1.51-.6-.33-.48-.22-.87-.26-1.51v-.14c-.07-.87.94-2.61,1.87-1.55,1.02.96,1.07,2.57.1,3.6-.07.07-.13.14-.21.2M95.36,244.97h-.1c-.14-.14-1.02-.66-1.02-.79,0-.09.28-.17.41-.26.36-.15.92-.59,1.27-.3.14.14.45.4.47.55-.31.3-.66.57-1.03.81M95.51,239.65c-.74.88-1.21-.89-1.37-1.51v-.14c.03-.37.19-.94.28-1.38.12-.81.45-1.54,1.28-.92,1.4.99.48,2.82-.18,3.95M115.33,280.36c.12-.11.2-.25.23-.41,0-.49.51-.56.79-.21.19.21.09.66.1.9v.1c0,.05-.08.4-.23.48-.2.02-.4-.03-.58-.13-.35-.17-.58-.44-.31-.72M109.34,329.57v.07c-.4.28-.73.68-1.24.47-.24-.12-.91-.33-.95-.55.63-1.08,1.6-.86,2.2,0M105.09,292.88c.48-.03.96,0,1.42.12.1.03.12.29.15.39l-.03.1c-.32.27-.69.48-1.09.62-.16.02-.3-.17-.47-.39-.23-.18-.26-.52-.08-.75.03-.03.06-.06.09-.09M109.32,384.48v.13c-.03.97-.06,2.31-.86,2.73-1.3.73-2.94.27-3.68-1.02-.33-.59-.43-1.28-.28-1.94.2-.92.85-1.69,1.73-2.05.54-.11,1.03.17,1.58.12.97.16,1.64,1.06,1.5,2.04M114.14,378.63c-.13.45-.51,1.03-.95.94-.28-.09-.38-.42-.28-.78.1-.6.16-1.2.71-1.47h.08c.15.36.53.88.45,1.32M112.62,336.79c-1.48.96-3.13,1.6-4.87,1.9h-.16c-1.39.17-2.7-.67-3.14-2-.15-.72,0-3.21,1.21-2.52.84.58,1.93,1.58,3.08,1.12,1.06-.3,1.8-1.39,2.71-1.98.7-.32,1.46-.48,2.22-.49,1.22-.17,2.1-1.54,3.29-1.71,1.9-.35,2.79,1.17,1.22,2.57-1.64,1.38-3.53,2.43-5.57,3.1M119.51,386.45c-.33.27-.69.48-1.09.62-.16.02-.3-.17-.47-.39-.23-.18-.26-.51-.08-.74.03-.04.06-.07.1-.1.48-.03.95,0,1.42.12.1.03.12.29.15.39l-.03.1ZM122.38,363.15c0,1.38.53,3.14-1.49,3.09h-.15c-.99-.39-1.87-1.02-2.54-1.85-.42-.51-.95-1.18-.87-1.79.26-.81,1.12-1.35,1.75-1.9.83-.62,2.45-1.11,3.33-.28.37.66-.14,1.91-.03,2.75M124.47,327.32c-.17.15-.58.76-.85.66-.39-.21-.58-.66-.46-1.08.33-1.92.89-.53,1.32.33v.1ZM124.61,221.66c-.23.16-.48.29-.75.38-.11,0-.17-.15-.27-.33-.17-.38-.63-.85-.45-1.27.13-.2.31-.35.52-.45.14,0,.19.3.29.43.2.35.46.81.66,1.14v.1ZM129.3,249.44v.07c-.13.26-.33,1.07-.66,1.13-.43-.35-.08-1.28,0-1.8.06-.16.29-.42.42-.42.19.11.28.68.25,1.02M131.04,274.79c.06-1.01.78-.68.92-.03v.1c0,.24.08.62-.04.8-.33.66-.66.81-1.2.22-.36-.3.06-.78.3-1.09M131.56,288.84c-.2.17-.44.45-.66.11-.4-.33-.03-.57.12-.85.08-.24-.04-.72.14-.96.3-.3.7.17.79.39l.02.11c.05.55.08.86-.4,1.2M132.93,233.97c.34-.28.71-.51,1.12-.69.37-.24.86.44,1.01.62v.07c-.19.68-1.91.83-2.14,0M140.43,191.5l-.03.15c-.18,1.21-1.11,2.17-2.31,2.4-1.13.2-1.98-.85-2.84-1.65-.9-.99-2.99-2.32-1.01-3.44.96-.45,2.57-.05,3.73-.22.75,0,1.46.37,1.89.99.51.43.73,1.12.57,1.77M145.31,264.93c-.05.33-.64.33-.85.48s-.4.29-.49.35h-.1c-.7-.33-.33-.83.15-1.21.33-.31,1.37-.23,1.29.38M152.23,294.38c.68-.66,1.34-1.53,2.27-1.59,2.41.51,4.15,2.61,4.19,5.07-.03,1.32-1.58,1.84-2.59,2.09l-.14.02c-1.39-.28-2.63-1.06-3.47-2.19-.51-.6-1.3-1.1-1.29-1.89.09-.62.66-1.04,1.06-1.49M155.06,339.99c-.07.22.07.66-.11.8-.33.26-.92-.15-.77-.55v-.1c-.07-.32.01-.65.23-.89.26-.29.42-.66.81-.28.38.33,0,.71-.16,1.02M158.68,323.25c0,1.27-1.3,2.11-1.94,3.27-.42,1.11-.91,2.18-1.48,3.22-.7.83-1.82,1.16-2.86.85-1.26-.37-1.69-1.85-1.79-3.13.25-1.55.26-3.13.04-4.69-.3-2.46.79-4.88,2.82-6.3,2.38-1.58,1.81,1.19,2.64,2.52.71,1.41,2.64,2.41,2.59,4.1v.15ZM159.74,279.03c-.2-.21-.29-.74-.51-1.03-.36-.44.1-.85.37-1.11l.07-.02c1.09.47.89,1.61.06,2.16M265.24,137.54c.82-.57,1.22.66,1.53,1.17.66,1.28-.04,3.52-1.76,3.31-1.2.07-1.04-.43-1.05-1.32v-.12c-.27-1.18.25-2.41,1.28-3.03M263.87,63.21c.26.63-.79.79-1.21,1.04h-.09c-1.27-.4.93-2.14,1.29-1.05M262.22,133.21c0-.27.14-.52.31-.39.2.3.06,1.22.1,1.62v.14c.02.41,0,1.36-.29,1.65-.08,0-.13-.3-.25-.49-.2-.24-.34-.53-.4-.84-.03-.57.52-1.1.53-1.67M263.39,148.08c.22.5.06,1.09-.4,1.4-1.45,1.07-3.49-.14-4.46-1.4-1.17-1.33-2.04-2.97.56-2.9h.15c1.86-.04,3.54,1.13,4.15,2.89M253.01,123.27c0-.15.06-.29.15-.4.07-.06.15-.08.24-.05.2-.13.44-.22.68-.25.64-.03,1.28.11,1.84.42l.25.12.24-.1c1.36-.77,2.57-1.28,2.7.69.13,1.04-.21,1.43-.76,1.5-.08.11-.18.21-.3.28.16.24.21.53.16.81.31.21.57.48.78.78.21.97-.39,1.94-1.36,2.18-1.76.3-3.43-.88-3.73-2.64-.03-.17-.04-.34-.05-.51-.04-.23-.05-.46-.02-.7-.52-.41-.85-1.02-.9-1.68,0-.15.02-.3.08-.44M244.2,186.53h.16c1.41,0,1.9.83,1.88,2.11.07.79-.05,1.72-.93,1.98-.34.2-.76.18-1.08-.06-.94-.77-1.73-1.67-2.61-2.52-.85-1.05,1.9-1.71,2.59-1.52M248.87,205.83v.15c.08,1.87,0,3.15-2.28,3.29-.62.06-1.55,0-1.86-.41-.5-.91-.73-1.95-.66-2.99.25-1.34,1.51-2.28,2.31-3.33.5-.53,1.34-.55,1.86-.04.15.14.27.32.33.52.31.9.42,1.85.3,2.8M244.39,198.87v-.14c.08-.54-.28-1.91.57-1.94.85.36,1.36,1.24,1.25,2.16-.14.81.17,1.86-.12,2.57-.42.29-.99.25-1.36-.11-.55-.64-.29-1.82-.33-2.54M241.18,232.29v-.16c.12-3.65,3.01-4.37.48-8.09-.27-.44-.14-1.01.3-1.28.12-.07.25-.12.39-.13.94-.07,1.86-.28,2.73-.62,1.44-.92,1.09-3.82,3.08-4.49,1.06-.57,3.97-.77,3.21,1.15-.41.91-1.79,1.43-2.12,2.51-.19,1.15-.23,2.32-.12,3.47-.66,3.17-2.06,6.14-4.08,8.66-.33.59-.81,1.09-1.39,1.45-1.54.75-2.61-1.07-2.5-2.48M241.96,241.51c-.13.04.13-.14.33-.43.33-.5,1.17-.61,1.47-1.14.73-.96-.81-5.33,1.46-4.41,1.25.99,1.47,2.8.48,4.06-.15.19-.33.36-.52.51-.91.63-1.75,1.36-2.5,2.18l-.1.07c-.24.13-.23.12-.16.04.18-.23.14-.57-.09-.76-.11-.09-.24-.13-.38-.11M223.21,275.09c1.32-1.15,3.29-1.13,4.59.04.14.17,0,.38-.19.59-.42.55-1.12.83-1.8.71h-.15c-.46-.17-2.93-.55-2.45-1.32M221.26,262.27c.88-.79,1.07-.29,1.41.58.99,1.84-.02,3.29-2.31,3.37h-.14c-4.25-1.32-.7-2.41,1.04-3.93M215.53,320.6c.26-.99.39-1.98.89-2.14.48-.22,1.32.46,2.1,1.25.31.29.6.61.86.95.59.3.82,1.03.52,1.62-.08.15-.19.28-.32.39h0c-.71,1.26-1.25,2.61-1.61,4.01-1.28,2.59-4.86,1.12-6.09-.79-.33-.49-.2-.54.15-.64.64-.19,1.18-.62,1.51-1.2.5-.76,1.14-1.46,1.57-2.27-.07-.45.1-.89.44-1.19M214.91,371.51c-.71.16-1.42-.24-1.65-.93-.06-.2-.43-.62-.18-.76l.07-.02c.53-.09,2.54,1.07,1.77,1.71M208.92,317.08c.86-1.36-1.26-2.73-1.32-4.4-.04-1.39,1.06-2.54,2.45-2.57.32,0,.64.04.93.15,1.45.57,1.96,2.27,2.5,3.6.42,1.2,1.21,2.37.99,3.24-.86,1.54-2.33,2.64-4.05,3.05l-.12-.03c-.43.34-.94.54-1.49.59-.33.24-.4.57-.06,1.08.55.66,1.07,1.36,1.55,2.08.1.33-.56,0-1.38-.73-1.12-1.31-2.63-2.23-4.31-2.64-2.88-.77-.45-1.21.99-.99,0-.13.02-.26.06-.38-.51-.12-.99-.24-1.46-.36s-1.35-.44-1.25-.51c1.04-.92,4.81.31,5.98-1.18M199.58,289.62h.16c2.71.32,4.83,2.47,5.12,5.18.24.98-.26,1.98-1.17,2.39-1.43.14-2.86-.25-4.01-1.11-2.24-1.29-3.83-6.16-.1-6.45M191.03,303.22c.33.17.64.37.95.58v.06c-.33.23-.66.62-1.08.52-.33-.1-.91-.28-1.03-.59.18-.42.73-.81,1.17-.57M190.22,285.33c.05-.14.18-.45.33-.48s.25.18.38.27c.18.14.34.31.48.49.28.33-.4.86-.54,1.16h-.07c-.17-.43-.6-.99-.58-1.46M190.42,273.1c.14-1.25,1.32-2.08,2.14-2.91.36-.28.66-.81,1.03-.76.57.25.84,1.27,1.06,1.78v.13c0,1.42-1.27,3.1-2.39,2.78-.61-.2-1.52-.44-1.85-1.02M194.23,279.28c.92-.51,1.93.37,2.64.87l.04.1c.04.51-.53.6-.94.83-.55.33-1.17.51-1.81.54-.5-.14-.97-.38-1.36-.72-.14-.1-.24-.21-.22-.33.44-.56,1.01-1.01,1.66-1.29M194.68,307.07c.24-1.29,1.38-2.16,2.25-3.1.45-.38.85-1.02,1.44-1.14.61-.03,1.41,1.28,1.56,1.76l.02.15c-.24,1.45-1.03,2.75-2.21,3.62-.52.46-1.08,1.26-1.72,1.44-.23.04-.47-.07-.59-.27-.52-.71-.78-1.57-.75-2.44M190.35,251.48c1.98-2.03,3.16-.3,4.09,1.65,1.54,2.13,2.55,4.59,2.95,7.19v.16c.04.71-.1,1.42-.4,2.07-.79,1.1-2.33,1.35-3.44.56-.11-.08-.22-.17-.32-.27-1.65-3.29-5.6-7.7-2.88-11.35M184.62,254.26c.19-.11.93-.6,1.29-.52,1.11,1.09,1.3,2.81.46,4.13-.71.42-1.49.69-2.31.8h-.15c-.94-.24-1.9-.41-2.87-.51-.48-.02-.95-.04-.9-.29,1.19-1.52,2.72-2.75,4.47-3.59M181.06,326.23c.1-.05.2.26.31.38v.09c-.17.2-.47.66-.79.8-.27.1-1.11,0-1.08-.39.13-.36,1.22-.71,1.56-.89M181.02,334.14c.95.99-.91,2.16-1.75,1.81-.28-.07-.56-.15-.84-.24-.4-.13-1.02-.18-1.07-.66v-.08c-.46-2,2.71-1.67,3.67-.84M168.85,250.66v-.16c-.1-1.17-.02-2.36.24-3.51.73-1.33,2.41-1.82,3.74-1.09.12.06.23.14.34.22,1.12.89,1.31,2.51.42,3.63-.19.24-.41.44-.67.59-.96.65-1.5,1.76-1.4,2.92.01.36-.04.72-.15,1.06-.43,1.01-1.39,1.53-2.08.44-.77-1.24-.33-2.74-.44-4.12M161.47,282.7c.48-.77,1.5-.04,1.94.44.2.24-.48.39-.58.5h-.1c-.36-.22-1.42-.33-1.26-.95M168.18,363.18c-.23.35-.44.85-.73.83-.38-.04-.7-.31-.79-.68-.05-.32-.06-.65-.04-.97v-.12c-.13-.66.07-1.34.53-1.83.22-.24.46-.7.66-.72.36.15.74.92.9,1.32.12.77-.08,1.55-.53,2.18M170.51,397.31c-.38.71-.99.43-1.13-.19-.01-.44.2-.85.57-1.09.56-.54.52-.4.66.16v.09c.07.35.03.7-.12,1.02M170.78,368.81c-.06.2-.26.51-.44.48-.41-.22-.66-.64-.66-1.1.06-.37,0-.94.18-1.01h.06c.28.17,1.02,1.12.86,1.65M173.48,360.92c-.08.07-.33.3-.44.39-.14.17-.23.07-.43-.12-.27-.26-.66-.64-.62-.92.15-.2.42-.6.6-.64.23.08.71.97.91,1.19l-.02.1ZM174.02,313.8c-.84,1.4-2.64,1.88-4.06,1.07-1.06-.57-1.13-1.93-1.1-3.05v-.16c.16-2.5-1.31-4.81-3.65-5.72-1.17-.22-2.88.52-3.68-.22-.46-.53-.52-1.29-.16-1.89.56-1.07,1.39-1.96,2.42-2.58,1.1-.62,2.6-.06,4.04.31.98.25,1.85.83,2.46,1.65.99,1.99,1.74,4.11,2.21,6.28.58,1.39,2.34,2.64,1.52,4.31M176.11,407.16l-.56.61c-.11.09-.21.3-.33.27-.22-.13-.71-.66-.55-.99.16-.41.4-.78.71-1.09.27.34.52.71.73,1.09v.1ZM175.5,308.87c-.2,0-.68,0-.78-.12.05-.19.47-.47.66-.64.25-.23.56.13.79.21v.08c-.2.16-.43.43-.68.47M179.71,361.83c-.83.26-3.48-.69-2.73-1.73.69-.79,1.5-1.47,2.21-2.25.54-.64,1.49-.72,2.14-.19.13.11.23.23.32.37.12.5.16,1.01.12,1.52v.14c.24,1.25-.96,1.98-2.07,2.14M180.96,347.23c-.96-.87-1.66-1.98-2.01-3.23l-.02-.15c-.28-2.1,2.25-2.14,3.59-2.94,2.94-1.17,4.75-6.22,8.4-4.64,1.44.83,2.53,2.16,3.05,3.74.09.99-.86,1.75-1.58,2.34-2.52,1.87-5.01,3.77-7.68,5.46-1.04.89-2.61.77-3.5-.27-.09-.1-.17-.21-.23-.32M185.74,402.52c-.7.63-1.24-1.21-1.32-1.73,0-.66.24-1.3.66-1.81.15-.21.3-.58.47-.58.44.23.79.61.99,1.07.05.26.07.53.06.79v.12c.03.81-.28,1.59-.87,2.14M188.03,367.16h-.18c-.23.05-.7-.02-.85.17-.12.47-.57,1.49-1.14,1.47-.25-.08-.7-1.14-.5-1.42.39-.39,1.27-.12,1.89-.24.05-.05-.11-.21-.1-.46.07-.38.17-.76.3-1.13.05-.7.76-.88,1.32-.54,1.01.83.81,2.16-.73,2.14M194.61,371.16c.07,2.05.03,3.88-2.46,2.34-1.98-1.03-3.55-4.13-2.09-6.02.85-.43,1.81-.57,2.74-.38,2,.11,1.86,2.47,1.81,3.91v.15ZM194.67,348.94h-.14c-.66.11-1.83-.18-1.74-1.09.31-.91,1.15-1.93,2.24-1.69.83.13,1.5.73,1.71,1.54-.37.81-1.19,1.3-2.08,1.25M197.87,355.84c-.3-.54.09-.84.48-1.16.61-.68.51-.3.73.25v.1c0,.83-.58,2.16-1.22.81M200.86,338.22c-.46.5-1.03,1.13-1.51,1.65-.29.28-.56.72-.88.62-.48-.27.2-.72.42-.99.41-.45.85-.87,1.32-1.25.25-.14.55-.02.71-.12.02-.01.05-.03.07-.05l-.14.15M198.52,338.04c-.49.14-.81.76-1.21.41-.35-.62.3-1.32.76-1.71.7-.64,1.64-.94,2.58-.82h.16c3.43-.16-1.57,1.65-2.31,2.11M202.58,326.63c-.78,2.19-2.18.92-3.35-.1-1.92-1.55-4.28,1.53-6.01.93-.23-.08-.43-.21-.61-.38-1.67-1.6-2.31-6.82-5.68-5.15-1.23.75-4.73,2.04-4.61-.43.31-1.19,1.29-2.25,1.49-3.51.36-1.35,0-3.65,1.37-3.12.5.24,1.03.95,1.5,1.16.45.06.18-.66.08-1.17-.1-.45-.6-1.32-.15-.99l.06.05c1.96,1.7,3.53,3.81,4.61,6.17.72,1.76,2.19,3.87,4.37,3.06,1.65-.5,2.77-2.23,4.23-1.35,1.48,1.04,3.14,3.13,2.71,4.83M203.02,334.24c.28-.42.81-.58,1.28-.38.23.26.12.82-.03,1.12-.45.36-.94.67-1.46.92h-.07c-.22-.52.12-1.15.28-1.65M204.77,468.88c-.24.26-.53.47-.85.62-.57.43-1.57-.02-.89-.69.37-.16.76-.29,1.16-.36h.11c.15.11.68.22.47.41M209.18,443.44c-.54.93-1.2,1.79-1.98,2.54-.39.38-.79.71-1.04.58-.84-.97-1.34-2.19-1.44-3.47v-.15c.09-.97.33-1.92.7-2.82.73-.76,2.04.03,2.59.59.71.73,1.79,1.63,1.16,2.74M210.44,387.76c-3.7-.4-3.56-1.79-2.08-4.71.86-1.29,1.41-2.75,1.62-4.28.01-.67.11-1.33.29-1.98.29-.77.96-2.01,1.55-1.15.29,1.06.88,2.02,1.68,2.76.77.8,2.38.99,2.85,2.08-.06,1.2-1.35,2.12-1.84,3.2-1.06,1.53-1.78,4.09-3.91,4.09h-.16ZM211.36,472.59h-.08c-.17-.22-.7-.55-.62-.88.18-.41.48-.76.87-.99.82.42.08,1.32-.18,1.85M213.61,454.7c-1.09-.51-1.71-1.77-2.44-2.67-1.22-1.79-.11-2.42,1.68-2.26h.14c.7-.18,1.45.08,1.88.66.6,1.21.3,4-1.27,4.28M214.4,403.19c-1.12-.24-4.53-3.4-3.21-4.54.81-.54,2.02-.46,2.73-1.21,1.18-1.06,1.28-3.31,2.62-4.22,1.18-.83,2.91-.38,4.38-.72,1.24-.15,2.14-1.14,3.2-1.65,1.38-.43,1.8,1.4,1.79,2.58v.17c.19,3.23-1.09,6.37-3.49,8.54-1.32.55-2.85-.77-4.22-.5s-2.18,2.22-3.79,1.55M217.83,371.28c1.37-3.42,5.37,2.14,6.45,3.55.36.5,1.11,1.19.66,1.81-1.32.96-2.74,1.77-4.23,2.41-.94.37-1.57.81-2.27.41-.63-.81-.92-1.84-.8-2.86v-.16c.04-.9.2-1.78.47-2.64.13-.86-.54-1.67-.28-2.54M218.2,409.55c-.01-.12.03-.24.12-.33.54-.67,1.41-.98,2.26-.81.84.06,1.82-.13,2.43.37.02.7-.33,1.36-.93,1.72-.35.19-.86.22-.94.03s.18-.51.49-.66c.37-.18.44-.38.08-.45h-.14c-.69.03-1.72.26-2.47.33-.39.05-.86.03-.9-.18M219.31,451.25c-.14-.37-.37-1.07.25-.99.43.2.74.89,1.06,1.23l-.02.1c-.68.68-1.01.58-1.29-.33M224.28,457.11c-.52.26-1.11.36-1.69.26-1.42-.71-2.29-2.18-2.24-3.77v-.17c0-.86.49-1.13,1.25-.96,1.81.35,2.77,2.14,3.53,3.64.24.6-.27.87-.85.99M227.96,405.66v.14c-.07,1.49-1.33,2.65-2.83,2.58-.17,0-.35-.03-.52-.07-.54-.16-1.28-.15-1.41-.57-.04-.26,0-.52.14-.74.73-1.68,5.01-5.48,4.63-1.34M235.18,480.13h-.1l-.9-.46c-.27-.14-.58-.28-.5-.55.04-.21.47-.22.73-.29.26-.07.54.03.69.25.16.24.28.5.36.78.03.1-.22.19-.29.25M236.06,448.97v.14c-.14.77-.38,1.52-.71,2.24-.32.32-.8.44-1.23.29-.36-.27-.62-.66-.71-1.1-.2-1.01.15-2.04.92-2.72.56-.32,1.28-.12,1.59.44.12.22.17.47.14.71M237.98,443.54c-.17.33-.43.59-.72.33-.11-.12-.26-.2-.42-.23-.49,0-.56-.51-.22-.79.21-.19.66-.09.9-.1h.1c.05,0,.4.07.48.22.02.2-.02.4-.13.58M249.51,305.84c-.66.62-1.71,1.98-2.6.94-.36-.82-.57-1.71-.61-2.61-.02-.33-.27-.7-.2-1.03.06-.24.26-.43.5-.49.41-.1.81-.23,1.2-.39l.13-.02c.28-.02.58.24.99.33.66.11,1.57-.09,1.98.5.57.89-.75,2.13-1.36,2.79M253.25,276.28c-.92-.38-1.55-1.25-1.62-2.24-.18-.68-.45-1.88,0-2.18.57-.32,1.23-.46,1.88-.39h.15c1.42-.17,2.71.38,2.85,1.98.2,2.36-.91,3.43-3.25,2.83M261.4,257.96c-1.58,3.08-3.61,5.92-6.02,8.41-1.35.84-2.55,1.91-3.53,3.16-1.17,1.71-3.2,1.75-5.21,2.7-1.47.66-2.86,1.47-4.16,2.41-1.26,1.4-1.15,3.56.25,4.82.02.02.04.03.06.05.87.76,1.9,1.3,3.02,1.58,2.85.73,5.64,1.69,8.35,2.87,1.51.72,2.12,1.91.16,2.42-2.51.85-6.84-.58-7.91,2.66-.36,1.52,0,3.13.99,4.35,1.2.83,2.42-.89,3.62-1.08,1.22-.29,2.45.47,2.74,1.69.16.66.01,1.35-.4,1.89-.64.79-1.59,1.25-2.61,1.28-1.71.42-6.09-.87-6.02,1.74.31,1.14.54,2.29.68,3.46.03,1.75-1.54,3.37-1.55,5.31-.07,3.66,3.23,6.86,2.22,10.63-.27,1.3-1.46,2.2-2.78,2.11-1.18-.06-2.37-1.1-3.11-1.24-.24-.06-.51,0-.51.29.3,1.32,1.83,2.26,2.26,3.59.6,1.21.1,2.67-1.11,3.27-.03.02-.06.03-.1.05-1.3.66-3.45.26-4.33,1.6-.66,1.98,2.31,3.6,3.01,5.19,1.03,1.93-.45,4.31.93,6.16.71,1.12,2.17,2.12,2.27,3.06s-.99,1.45-1.83,1.56c-2.59.5-4.86-1.76-7.21-2.04-1.6-.06-2.79,1.27-3.92,2.21-.92.8-1.62,1.62-1.36,2.86.25.95.6,1.86,1.05,2.73,1.09,2.27,1.47,4.84,2.34,7.17.54,1.18,1.01,2.39,1.42,3.62,1.05,3.59-3.51,8.24-6.52,4.49-4.4-4.18-1.65-5.97-1.8-10.66-.18-1.82-1.71-3.37-1.51-5.02.08-1.08.66-2.1.81-3.16.4-3.54-4.35-6.14-7.11-7.46-3.26-1.22-1.37-5.32.85-6.29,2.69-.76,6.37,3.85,7.72-1.39.63-1.44.97-3,.99-4.58-.45-1.65-.99-3.28-1.62-4.87-.33-1.34-.33-2.71-.57-4.07-.91-4-2.97-7.85-3.88-11.86-.38-1.86,1.42-3.03,1.98-4.64.64-1.53-.12-3.88,1.29-4.99,1.35-.61,3.55,1.14,3.99-1.19.14-1.16-.55-2.25-1.65-2.64-.67-.24-1.29-.59-1.84-1.04-.88-1.02.6-2.67,2.09-3.44,1.64-.67,3.41-.93,5.17-.76h.17c5.89.41,2.78-3.15,1.42-6.17-1.62-2.4-2.04-3.71.05-5.7.81-.65,1.41-1.53,1.73-2.52.17-.97-.6-1.98-1.11-3.18-.25-.85-.58-1.66-.99-2.45-1.01-2.11-6.26.06-6.08-2.81.5-1.2,1.27-2.27,2.25-3.12,1.41-1.51,3.5-1.98,4-3.67.52-1.92.33-4.24,3.04-2.97,5.01,1.82,4.86-7.99,9.35-8.09,2.07.21,3.54,2.84,3.67,4.92.03.99.3,1.97.77,2.84,1.48,1.51,3.79,1.86,5.65.85,1.83-.94,2.07-3.69,3.69-5.17.97-1.02,2.57-1.08,3.61-.12,3.79,3.02.71,5.6-1.32,8.38M232.78,345.5v.05c-.49.73-1.84-.83-1.59-1.38.44-.22.66,0,1.04.18s.77.33.55,1.15M257.03,216.26c-1.51-1-3.48-.96-4.94.1-.88.15-.52-2.16-.37-2.68.54-1.57,2.86-1.76,4.27-2.39.88-.36,1.45-1.32,2.37-1.58,2.35-.66,3.71,1.53,3.43,3.62v.18c.11,3.41-1.76,5.02-4.72,2.77M255.24,243.56c.4-.28.73-.61,1.22-.54.71-.05,1.42.15,2.01.56.85,1.19-1.02,2.25-2.08,2.14h-.12c-.99-.25-2.4-1.21-1.02-2.15M254.09,222.22h-.16c-.74.06-1.43-.34-1.76-1-.24-.39-.66-1.03-.45-1.22,1.38-.04,2.76.1,4.1.44.44.15.68.63.52,1.07-.06.17-.17.32-.32.42-.56.37-1.26.2-1.93.28M262.93,167.02c-1.11-1.37-2.3-2.68-3.56-3.92-2.22-1.62-4.87-2.52-7.62-2.59-1.65-.2-3.8.15-5.16-.9-1.84-1.85,1.49-4.59,1.49-6.2-.05-.47-.38-.87-.83-1.01-.88-.37-2.31-.52-2.23-1.76.38-2.31,1.19-5.76,3.95-5.93h.14c1.75.31,2.14,2.6,3.72,3.38,2.74,1.63,4.93,4.04,6.3,6.92.32.74.76,1.42,1.32,2.01,1.22.79,2.5,1.49,3.82,2.09,1.35.93,2.9,2.38,2.8,4.01-.14,1.8-2.03,5.49-4.19,3.9M267.26,133.69c-.48.37-1.45,1.82-1.98.99-.05-.26,0-.53.12-.76.56-1.23,1.18-2.5,1.59-3.73.22-.42.24-.37.4-.5.28-.18.64-.17.91.03.64.21,1.14.71,1.36,1.35v.1c-.72.92-1.53,1.77-2.41,2.54M270.38,258.12c-.2.14-.47.52-.58.3s0-.33.11-.56c.26-.74.82-2.02,1.75-1.21l.03.08c-.36.53-.81,1-1.32,1.39M298.69,155.65c.11-.14.23-.27.36-.39h.08c.23.47.96,1.08.74,1.65-.19.28-.47.87-.77.45-.23-.55-.37-1.12-.42-1.71M277.82,267.16c.75-1.15,1.32.07,1.26.91l-.04.1c-.12.07-.24.13-.37.18-.12.03-.21-.09-.33-.23-.18-.26-.59-.66-.52-.96M279,386.9l-.29.2c-1.28.52-.96-1.24-.33-1.67.37-.23.84.29.71.66v.1c0,.16.06.56-.09.73M280.14,202.67l.23-.22c.46-.42.91-.28,1.4.03.22.12.42.23.44.41s-.15.45-.31.56c-.09.08-.4.03-.59.03h-.11c-.35.07-.72-.09-.9-.41-.06-.13-.21-.28-.17-.4M289.97,272.25c-.75,1.2-1.63,2.32-2.61,3.33-.39.48-.94.81-1.55.91-2.05-.07-3.95-1.07-5.16-2.72-.34-.52-.31-1.2.06-1.7.53-.87,1.79-.58,2.57-.61h.14c1.37.07,2.73-.28,3.9-.99.57-.38.94-1.06,1.61-1.11,1.14.12,1.65,1.94,1.04,2.9M290.48,259.63c-.57,1.07-.24,2.97-1.38,3.65-1.24.18-1.75-1.78-1.62-2.79v-.16c.23-1.18.26-2.39.1-3.58-.3-1.69.83-3.3,2.51-3.59.07-.01.14-.02.22-.03,1.36-.26,2.49,1.35,2.5,2.64-.06,1.58-1.6,2.6-2.34,3.87M294.04,226.9c-.42.19-1.01-1.02-1.13-1.82-.12-.68.33-1.22.6-1.81.15-.3.33-.62.66-.5.6.35.95,1,.93,1.69v.14c.06.9-.33,1.76-1.05,2.31M297.88,207.2v.17c-.02,1.61.03,3.42-.03,5.14.03.62-.26,1.21-.77,1.57-1.16.47-3.12-1.62-3.43-2.61-.15-.77.54-1.44.95-2.06,2.31-3.15-1.27-6.04-3.29-8.2-1.09-1.11-.39-2.34.74-3.09,1.02-1.1,2.73-1.16,3.83-.15.09.08.17.17.25.27,2.52,2.14,1.61,6.12,1.77,8.97M300.1,174.47c-.13.51-.65.81-1.16.67-.19-.05-.36-.16-.49-.31-.48-1.29-.55-2.7-.2-4.03-.07-1.33-.07-2.66,0-3.99.22-.43.65-.72,1.14-.76.48-.03.64.56.8,1.09.26,1.12.35,2.28.25,3.42v.15c.13,1.26,0,2.53-.37,3.75M304.63,224.33c-.17-.14-.12-.33.11-.38.04-.02.09-.01.11.02,0,0,0,.01,0,.02-.06.12-.14.23-.22.33M304.96,223.78c-.1-.09.07-.3.11-.26-.04.1-.08.19-.11.26M305.19,223.75h-.08l.08-.11c.12-.12.1-.04,0,.1M304.14,223.35h-.07c-.17-.17-.17-.44,0-.62.05-.05.12-.09.19-.11.33-.17.78-.43,1.02-.24.15.66-.74.79-1.14.97M307.81,221.16c-.51.36-1.04.67-1.61.93-.64-.06-.2-.66-.07-1.02.45-1.17,1.07-1.6,1.9-.48v.09c-.05.18-.13.34-.23.49M304.35,206.5c-2.7-1.72.52-4.59,1.51-6.44.27-.47.74-.82,1.23-.43,1.27,1.06,1.02,3.07,1.21,4.54v.16c.37,2.15-2.57,2.74-3.95,2.16M314.41,144.31c-.06-.09-.1-.2-.14-.3,0-.04.09-.1.14-.14l.16.28-.16.16M315.94,144.29c0,.23-.05.52-.17.45-.16-.31-.29-.63-.39-.96-.12-.33-.33-.77-.12-.82h.07c.46.27.7.79.61,1.32M317.29,387.41h-.08c-.28-.48-.51-.98-.69-1.51,0-.15.3-.45.43-.42.2.12.39.26.55.43.19.2.53.42.62.61-.08.27-.64.66-.84.9M320.91,151.56l-.04.09c-.5.37-1.21.27-1.59-.21-.12-.17-.48-.2-.53-.35s.33-.43.43-.51.38.06.6.15c.33.15.66.33.96.49.13.06.2.19.17.33M320.17,147.1c-.48.2-.99.31-1.51.33-.61-.13-.92-.74-1.5-.99-.5-.2-1.09-1.65-.27-1.71.8.05,1.57.46,2.4.55.53.12,1.38.27,1.62.77l.03.13c.07.51-.28.77-.78.91M322.85,293.77c-.3.4-1.08.61-1.11-.1-.24-.69.99-1.88,1.32-.93l.02.1c.03.33-.05.66-.23.93M329.36,165.64c-.22-.02-.43-.09-.61-.22-.5-.26-1.2-.19-1.59-.7-.21-.21-.45-.44-.44-.66.26-.59.77-1.04,1.39-1.23h.14c.85.03,1.68.27,2.41.71,1.35.84-.53,1.85-1.29,2.08M332.73,183.36h-.07c-.26-.37-.45-.8-.53-1.25-.08-.32.12-.65.45-.73.03,0,.06-.01.09-.01.4.02.71.58.68.95.04.33-.43.89-.61,1.03M353.82,64.27c-.22-.03-.42-.14-.58-.29-.18-.16-.4-.18-.55-.31s-.38-.44-.24-.53l.61-.44h.1c.48.23.95.5,1.39.79,0,.24-.46.8-.73.78M449.97,243.99v.13c-.36.8-1.11,1.36-1.98,1.48-.33-.03-.64-.22-.99-.26-.55-.08-1.26.02-1.32-.51,0-.73.39-1.4,1.03-1.75,1.13-.24,2.67-.23,3.26.93M447.68,312.16c.05.35.08.69.08,1.04l-.02.14c-.37,1.03-1.68,2.33-2.71,2.02-.73-.25-1.83-.07-2.49-.33-.22-.13-.08-.38,0-.55,1.16-1.48,3.04-2.04,4.46-3.2.11-.08.24-.12.37-.12.33.17.24.58.33.99M445.69,237.97l.08-.02c.53.33,1.43.54,1.73,1.06.12.33-.58.91-.88.9s-.44-.33-.68-.39c-1.12-.15-.57-.94-.26-1.56M409.98,157.59l.04-.04c.25.6.6,1.16,1.03,1.65.12.23.04.52-.2.64-.01,0-.02.01-.04.02-.45.05-.84-.56-1.02-.88-.13-.4.16-.99.19-1.39M403.62,166.13c.27-8.26,11.53,5.27,11.04-4.23v-.17c-.21-1.58.18-3.19,1.1-4.49,1.21-1.43,2.93-2.25,4.33-.55,2.78,2.9,2.13,4.09.17,7.14-1.89,3.44,5.16,7.76-1.98,8.24-1.91.03-3.72-.82-4.92-2.31-1.95-1.4-4.34-2.04-6.72-1.79-1.39.02-3.14,0-3-1.84M417.98,217.72c.77.92-.5,1.79-.99,2.53-.53.51-1.02,1.52-1.68,1.76-.48-.12-.54-.73-.77-1.16-.17-.44-.4-.91-.5-1.28l-.03-.15c0-1.3,1.05-2.35,2.35-2.35.61,0,1.2.24,1.63.66M415.53,172.98l.39-.26.5.26c-.11.08-.23.22-.33.2-.19-.04-.38-.11-.55-.2M408.47,224.8c-.76,0-1.48-1.54-.53-1.86h.09c.2.17.66.46.8.77.1.26.02,1.11-.36,1.09M404.32,240.62c.42.4,1.75,1.3,1.65,1.76-.02.17-.51.3-.93,0-.42-.4-.76-.88-.99-1.41-.1-.25-.09-.43.08-.45h.08c-.36-.2-.71-.45-1.01-.72-.17-.16-.28-.37-.33-.6-.05-.11-.27-.45-.21-.47s.09.12.18.22l.07.05c.24.11.46.25.66.41.27.33.4.77.69,1.12.73.24,1.43.57,2.08.99-.7-.26-1.38-.58-2.04-.94l.03.04M401.81,169.3c0-.55.52-.85.99-1.09.33-.22.77-.13.98.2.12.19.15.42.08.63-.4.29-.83.54-1.27.75h-.11c-.1-.04-.41-.16-.51-.21s-.16-.11-.15-.27M403.6,233.64v.09c-.17.2-.45.7-.76.83-.25.11-1.1.03-1.1-.33-.02-.75,1.49-1.48,1.86-.58M402.11,239.35s-.09.1-.14.15c-.06-.09-.1-.19-.14-.3,0-.04.09-.1.14-.15.06.09.11.19.14.3M399.69,295.54c.25-.12.62-.33.74-.24.57.83.55.77-.29,1.18h-.1c-.86-.12-1.56-.37-.35-.96M398.7,240.06c.26,2.6-1.76,3.16-3.84,2.99h-.15c-.99-.05-3.09.06-3.56-1.13-.1-.48-.12-.97-.06-1.45-.23-3.53,7.34-3.85,7.6-.41M391.12,159.97c.36-.6.76-1.17,1.2-1.71.5.23,1.2.9,1.11,1.48l-.02.13c-.13.7-.32,1.39-.55,2.07-.69,1.36-1.41-.22-1.83-.89-.39-.44-.29-.66.09-1.07M381.08,115.29c.13-.49.19-1.17.58-1.25h.11c.82.36,1.27,1.24,1.1,2.12-.11.7-.35,1.37-.7,1.98-.56.66-1.14.33-1.23-.41-.12-.81-.07-1.64.14-2.44M376.33,152.69c2.01-3.51,3.97-.85,7-.66.51.02,1.02-.07,1.49-.26,1.25-.59,2.41-1.84,3.2-.47,1.39,2.61-1.07,2.81-3.05,2.64-2.48-.14-6.5-.24-8.94-.45.04-.28.15-.54.3-.77M364.59,271.53c-2.13.06-2.85-4.23-.71-4.89h.11c.35.02.78.57,1.22.96.75.61,1.35,1.38,1.75,2.26.42,1.09-1.32,1.49-2.37,1.68M367.37,58.49c-.23.28-.63.63-.99.36-.3-.31-.71-.51-1.14-.54v-.06c.35-.26.61-.81,1.12-.52.41.14.8.33,1.17.57l-.14.2M374.61,200.81c-.07.19-.16.47-.29.47-.27-.09-.51-.54-.69-.79-.23-.35.1-.87.4-1.05h.08c.16.35.66.91.5,1.36M373.71,195.53c.4-1.05,1.85-1.71,2.76-2.27.12-.07.27-.06.39.02-1.08,1.25-3.07,3.27-3.14,2.26M377.31,191.69c-.89.58-2.02,1.07-3,1.6-.43.19-.96.62-1.34.21-.18-.21,0-.52.1-.73,1-1.29,2.74-1.75,4.24-1.13v.06ZM378.62,190.99c-.36,0-.49-.35-.41-.66.29-.97,1.29-1.57,1.93-.66v.08c-.45.35-.9,1.17-1.52,1.24M385.32,369.39h-.15c-1.21-.05-2.16-1.07-2.12-2.28.01-.4.14-.79.36-1.13.92-1.9,1.62-.71,2.75.15,2.26,1.41,1.79,3.15-.85,3.27M386.64,275.12c-.03-.2-.02-.41.03-.61.17-.31.54-.45.78-.12.16.52.13,1.07-.09,1.57-.11.14-.36.41-.49.41-.21-.34-.29-.75-.23-1.15v-.11ZM386.37,157.82c-1.05-.09-2.05-.48-2.88-1.14-1.56-.84-3.28-1.35-5.04-1.5-1.1-.16-2.39-.59-2.43-1.54,2.56.56,11.86,1.08,12.24,2.87-.34.75-1.06,1.24-1.88,1.28M389.75,348.43c-.75-.03-1.36-1.58-.47-1.77h.09c.69.07,1.36,1.69.38,1.77M405.79,373.58c-.15.2-.33.37-.52.52-.47.12-.96-.08-1.21-.5-.1-.18.03-.33.18-.41.42-.23.89-.34,1.37-.33h.1c.06.05.43.13.45.24s-.24.3-.37.47M405.78,353.42c-.38.51-1.45.35-2.06.38h-.14c-2.38.17-2.44-1.32-2.2-3.22.24-1.45,2.31-1.94,3.42-1.59,1.8.45,1.65,3.19.99,4.44M412,310.35c-1,.06-2.75-.49-2.4-1.79.37-.67.87-1.26,1.45-1.76.47-.42,1.15-1.21,1.73-1.25.19.04.31.33.44.6.37.56.57,1.21.57,1.88v.16c.12,1.07-.65,2.02-1.71,2.14-.03,0-.07,0-.1,0M415.97,283.04c-.33.76-1.94.99-3.24,1.41-1.57.45-2.88,1.52-3.65,2.97-1.23,2.69,2.15,4.89,2.16,7.63-.09,1.79-2.77,3.92.19,4.81.91.24,2.38.82,1.48,1.93-1.27,1.03-2.84,1.61-4.48,1.63l-.85.33c-.44.19-.85.42-1.24.7.01.91-.36,1.77-1.01,2.4-1.09.66-2.51-.23-3.69-.36-2.94-.2-5.88.13-8.7.96-1.48.43-3.08.14-4.32-.78-.48-.39-.56-1.1-.17-1.58.06-.08.13-.14.21-.2,2.31-.73,4.73-1.05,7.15-.94,2.56-.14,4.73-.27,7.22-.47,0-.05,0-.11,0-.16-5.93-.33-15.41-1.2-13.94-3.69,1.81-3.04,4.51-.29,7.16-.03,2.57.71,5.07,1.63,7.48,2.75.94-.55,1.95-.97,2.99-1.26-.02-.33-.04-.64-.07-.94-.82-3.44-1.41-6.94-1.76-10.47-.33-1.67-1.19-3.23-.29-4.83.99-2.1,2.35-4.12,3.56-6.14.94-1.55,1.18-3.76,2.56-4.47,1.04-.52,2.31-.25,3.05.66.94,1.14.58,2.97,1.03,4.61.23.74.54,1.44.93,2.11.29.42.37.95.23,1.44M409.29,267.64c.07-.39.29-.73.61-.95.14-.02.25.1.38.21.16.19.36.16.5.26.64.58.05.57-.29.8h-.1c-.39.03-.78-.09-1.09-.33M413.16,258.73c.11.05.14.48.21.66v.1c-.18.58-.71,1.9-1.25.7.02-.65.43-1.22,1.04-1.46M415.93,229.77h-.17c-1.48-.06-2.93.43-4.07,1.36-.37.38-.84.65-1.35.78-1.27.15-1.87-1.69-1.92-2.76-.08-.78.36-1.09.55-1.75.14-.52.04-1.22.33-1.7.38-.62,1.35.45,2.4.68,1.42.19,2.86-.2,3.99-1.08,1.15-.62,2.49-.79,3.76-.45.91.17,2.24.41,1.79,1.59-.63,1.14-1.47,2.14-2.48,2.97-.66.51-1.86.33-2.83.37M418.12,291.5c-.21,0-.44-.43-.66-.66-.21-.26-.4-.54-.56-.83-.05-.09.17-.24.23-.33l.09-.02c.58.33,1.14.69,1.67,1.09.14.35-.56.72-.79.77M421.76,320.31v.15c-.11,1.38-1.31,2.41-2.69,2.3-1.38-.11-2.41-1.31-2.3-2.69.11-1.38,1.31-2.41,2.69-2.3.12,0,.24.03.35.05,1.13.32,1.92,1.33,1.95,2.5M423.14,234.93c-.44.3-.66.12-1.26.13h-.09c-1.16-.52-2.64-.24-1.44-1.98.94-.44,2.03-.41,2.94.09.29.15.66.24.69.54.05.5-.48.94-.85,1.21M420.71,152.56h-.17c-.99,0-1.98.03-3.01.14-2.8.35-4.13-1.7-.76-2.37,1.43-.3,3.43.06,4.11-1.15.5-1.24.59-2.61.27-3.9-.21-.45-.46-.89-.75-1.29-.4-.73.63-1.17,1.14-.58.67.82,1.46,1.54,2.34,2.14.89.78.81,2.53.74,3.85.14,3.66-.66,3.09-3.9,3.17M425.4,153.15c.05-.25.17-.48.35-.66.92-1.08,2.06-1.96,3.35-2.56.89-.25,1.85.05,2.44.76.43.62.59,1.38.45,2.12-.02,1.98-1.41,2.2-3.06,2.22h-.16c-1.19.16-3.25-.55-3.37-1.89M431.95,163.08c.27,1-.32,2.02-1.31,2.29-.08.02-.16.04-.24.05-1.22.49-2.61-.1-3.1-1.32-.14-.35-.2-.74-.16-1.12.07-.79.16-1.92.9-2.33,1.91-.93,4.28-.15,3.91,2.28v.14ZM431.51,355.98v.09c-.31.54-.43.44-.88,0-.38-.38-.55-.72-.22-1.21.27-.43.29-.8.77-.31.51.33.37.94.35,1.44M429.01,369.39h-.17c-.41-.04-.77-.27-.99-.62-.29-.34-.53-.71-.72-1.1-.09-.51-.12-1.02-.09-1.53.01-.5.1-.99.25-1.47.07-.49-.29-1.08,0-1.58.21-.45.53-.82.86-.8,1.55.55,2.88,1.59,3.79,2.97.89,2.49-.05,4.43-2.92,4.14M434.72,237.6c.33-1.36.88-2.4,2.52-2.12.53.04,1.04.33,1.54.36.72-.06,1.17-.93,1.98-.73,1.28.11,2.54.4,3.75.86.89.52,1.02,1.65-.1,2.04-1.12.3-1.71,1.28-2.5,1.98-1,.45-2.11.62-3.21.49h-.16c-.82.08-1.66,0-2.45-.23-1.01-.47-1.58-1.56-1.38-2.66M442.27,313.17c-.39.22-.73.43-1.09.6-.06.03-.22-.14-.33-.2.33-.22.66-.46,1.01-.66.05-.03.21.14.41.26M436.91,371.33c-.19.15-.44.55-.66.59-.24-.38-.45-.78-.63-1.2-.21-.35,0-.92.37-.96.61.13.68,1.01.92,1.47v.09ZM439.22,358.68h-.1c-.21-.11-.66-.33-.9-.46s-.58-.28-.5-.55c.04-.21.47-.22.73-.29.26-.07.54.03.69.25.16.24.28.5.36.78.03.1-.22.19-.29.26M437.57,335.19c-1.26-.99-2.64-3.25-1.32-4.66,1.25-1,2.39-2.14,3.4-3.4,1.07-1.28,3.06-1.45,4.54-2.23.86-.29,1.69-1.41,2.64-1.16.82.94,1.27,2.14,1.26,3.39v.18c.19,3.79-4.44,3.53-6.42,5.69-1.1,1.19-2.31,3.32-4.1,2.19M441.81,340.68l.12-.17c.86-.38,1.74-.69,2.64-.95.13-.02.24.13.3.17l.02.07c-.59,1.08-1.94,1.48-3.02.9-.01,0-.03-.02-.04-.02M446.52,338.61c-1.28,1.06-3.08.2-4.54.64-.38.14-.95.44-1.11-.06-.07-.23.16-.48.3-.66,1.17-1.23,2.44-2.8,4.31-2.66.72.09,1.96-.2,2.1.74v.14c-.11.73-.49,1.39-1.06,1.86M451.69,337.69c-.96.35-1.55-.68-2.19-1.27-1.05-1.13-2.34-1.62-.6-2.99.73-.55.88-1.72,1.89-1.9,2.16-.57,2.14,1.26,2.1,2.84v.14c.06,1.1.08,2.64-1.2,3.17M451.73,307.15c-6.09,6.73-4.48-.59-1.38-4.05.89-1.13,5.74-4.51,6.76-2.73l.04.12c-.16,3.16-3.67,4.44-5.41,6.66"/></svg>